# AST/ASF file generated using VICON BodyLanguage
# -----------------------------------------------
:version 1.10
:name VICON
:units
  mass 1.0
  length 0.45
  angle deg
:documentation
   .ast/.asf automatically generated from VICON data using
   VICON BodyBuilder and BodyLanguage model FoxedUp or BRILLIANT.MOD
:root
   order TX TY TZ RX RY RZ
   axis XYZ
   position 0 0 0  
   orientation 0 0 0 
:bonedata
  begin
     id 1 
     name lhipjoint
     direction 0.606768 -0.715223 0.346827 
     length 2.41543 
     axis 0 0 0  XYZ
  end
  begin
     id 2 
     name lfemur
     direction 0.34202 -0.939693 0  
     length 7.2778  
     axis 0 0 20  XYZ
    dof rx ry rz
    limits (-160.0 20.0)
           (-70.0 70.0)
           (-60.0 70.0)
  end
  begin
     id 3 
     name ltibia
     direction 0.34202 -0.939693 0   
     length 7.61811   
     axis 0 0 20   XYZ
    dof rx
    limits (-10.0 170.0)
  end
  begin
     id 4 
     name lfoot
     direction 0.0823924 -0.226371 0.97055   
     length 2.33618   
     axis -90 7.62852e-016 20   XYZ
    dof rx rz
    limits (-45.0 90.0)
           (-70.0 20.0)
  end
  begin
     id 5 
     name ltoes
     direction 1.53554e-011 -4.21934e-011 1   
     length 1.17015   
     axis -90 7.62852e-016 20   XYZ
    dof rx
    limits (-90.0 20.0)
  end
  begin
     id 6 
     name rhipjoint
     direction -0.6077 -0.714582 0.346516   
     length 2.4176  
     axis 0 0 0  XYZ 
  end
  begin
     id 7 
     name rfemur
     direction -0.34202 -0.939693 0   
     length 7.28127   
     axis 0 0 -20   XYZ
    dof rx ry rz
    limits (-160.0 20.0)
           (-70.0 70.0)
           (-70.0 60.0)
  end
  begin
     id 8 
     name rtibia
     direction -0.34202 -0.939693 0   
     length 7.77648   
     axis 0 0 -20   XYZ
    dof rx
    limits (-10.0 170.0)
 end
 begin
     id 9 
     name rfoot
     direction -0.0809463 -0.222398 0.97159   
     length 2.37533  
     axis -90 -7.62852e-016 -20   XYZ
    dof rx rz
    limits (-45.0 90.0)
           (-20.0 70.0)
  end
  begin
     id 10 
     name rtoes
     direction -1.53568e-011 -4.21714e-011 1   
     length 1.18972   
     axis -90 -7.62852e-016 -20   XYZ
    dof rx
    limits (-90.0 20.0)
  end
  begin
     id 11 
     name lowerback
     direction 0.010968 0.991932 -0.126297   
     length 2.21698   
     axis 0 0 0   XYZ
    dof rx ry rz
    limits (-20.0 45.0)
           (-30.0 30.0)
           (-30.0 30.0)
  end
  begin
     id 12 
     name upperback
     direction 0.0167007 0.997503 -0.0686276   
     length 2.22371   
     axis 0 0 0   XYZ
    dof rx ry rz
    limits (-20.0 45.0)
           (-30.0 30.0)
           (-30.0 30.0)
  end
  begin
     id 13 
     name thorax
     direction 0.0111721 0.999885 -0.0102878   
     length 2.25242   
     axis 0 0 0   XYZ
    dof rx ry rz
    limits (-20.0 45.0)
           (-30.0 30.0)
           (-30.0 30.0)
  end
  begin
     id 14 
     name lowerneck
     direction -0.0120265 0.990428 0.137508   
     length 1.57674   
     axis 0 0 0   XYZ
    dof rx ry rz
    limits (-20.0 45.0)
           (-30.0 30.0)
           (-30.0 30.0)
  end
  begin
     id 15 
     name upperneck
     direction 0.0175669 0.998907 0.0433089   
     length 1.5618   
     axis 0 0 0   XYZ
    dof rx ry rz
    limits (-20.0 45.0)
           (-30.0 30.0)
           (-30.0 30.0)
  end
  begin
     id 16
     name head
     direction 0.00754609 0.99997 0.00185367  
     length 1.60579  
     axis 0 0 0   XYZ
    dof rx ry rz
    limits (-20.0 45.0)
           (-30.0 30.0)
           (-30.0 30.0)
  end
  begin
     id 17 
     name lclavicle
     direction 0.885866 0.429166 -0.176231  
     length 3.44967  
     axis 0 0 0   XYZ
    dof ry rz
    limits (-20.0 10.0)
           (0.0 20.0)
  end
  begin
     id 18 
     name lhumerus
     direction 1 -4.48973e-011 -1.90255e-027   
     length 5.20607   
     axis 180 -30 -90   XYZ
    dof rx ry rz
    limits (-60.0 90.0)
           (-90.0 90.0)
           (-90.0 90.0)
  end
  begin
     id 19
     name lradius
     direction 1 -4.48956e-011 9.87925e-027   
     length 3.39961   
     axis 180 -30 -90   XYZ
    dof rx
    limits (-10.0 170.0)
  end
  begin
     id 20
     name lwrist
     direction 1 -4.48985e-011 1.73247e-026   
     length 1.6998   
     axis -9.60847e-015 90 90   XYZ
    dof ry
    limits (-180.0 0.0)
 end
  begin
     id 21 
     name lhand
     direction 1 -4.48798e-011 3.46119e-026   
     length 0.519693   
     axis -2.21073e-014 90 90   XYZ
    dof rx rz
    limits (-90.0 90.0)
           (-45.0 45.0)
  end
  begin
     id 22 
     name lfingers
     direction 1 -4.48938e-011 6.92797e-026   
     length 0.41899   
     axis -4.42155e-014 90 90   XYZ
    dof rx
    limits (0.0 90.0)
  end
  begin
     id 23
     name lthumb
     direction 0.707107 -6.34952e-011 0.707107   
     length 0.601588   
     axis -90 45 6.0103e-014   XYZ
    dof rx rz
    limits (-45.0 45.0)
           (-45.0 45.0)
  end
  begin
     id 24 
     name rclavicle
     direction -0.866736 0.456792 -0.200276   
     length 3.45032  
     axis 0 0 0   XYZ 
    dof ry rz
    limits (-10.0 20.0)
           (-20.0 0.0)
  end
  begin
     id 25 
     name rhumerus
     direction -1 -4.4897e-011 8.65094e-028  
     length 5.32214   
     axis 180 30 90   XYZ
    dof rx ry rz
    limits (-90.0 60.0)
           (-90.0 90.0)
           (-90.0 90.0)
  end
  begin
     id 26 
     name rradius
     direction -1 -4.48987e-011 1.08427e-026   
     length 3.51208   
     axis 180 30 90   XYZ
    dof rx
    limits (-10.0 170.0)
  end
  begin
     id 27 
     name rwrist
     direction -1 -4.48961e-011 1.73222e-026   
     length 1.75604   
     axis -9.60847e-015 -90 -90   XYZ
    dof ry
    limits (-180.0 0.0)
  end
  begin
     id 28
     name rhand
     direction -1 -4.48895e-011 3.46314e-026   
     length 0.586681   
     axis -2.21073e-014 -90 -90   XYZ
    dof rx rz
    limits (-90.0 90.0)
           (-45.0 45.0)
  end
  begin
     id 29
     name rfingers
     direction -1 -4.48968e-011 6.92916e-026   
     length 0.472997   
     axis -4.42155e-014 -90 -90   XYZ
    dof rx
    limits (0.0 90.0)
  end
  begin
     id 30
     name rthumb
     direction -0.707107 -6.34848e-011 0.707107   
     length 0.679133   
     axis -90 -45 -6.0103e-014   XYZ
    dof rx rz
    limits (-45.0 45.0)
           (-45.0 45.0)
  end
:hierarchy
  begin
    root lhipjoint rhipjoint lowerback
    lhipjoint lfemur
    lfemur ltibia
    ltibia lfoot
    lfoot ltoes
    rhipjoint rfemur
    rfemur rtibia
    rtibia rfoot
    rfoot rtoes
    lowerback upperback
    upperback thorax
    thorax lowerneck lclavicle rclavicle
    lowerneck upperneck
    upperneck head
    lclavicle lhumerus
    lhumerus lradius
    lradius lwrist
    lwrist lhand lthumb
    lhand lfingers
    rclavicle rhumerus
    rhumerus rradius
    rradius rwrist
    rwrist rhand rthumb
    rhand rfingers
  end

#!OML:ASF H:\Dans Jumps\Project 1\Capture day 1\Session 1\subject.ASF
:FULLY-SPECIFIED
:DEGREES
1
root 0.748035 17.5183 -14.1078 5.28461 -1.78061 -0.585236
lowerback -1.62513 -0.803263 -1.34084
upperback 4.12727 -1.07774 1.31038
thorax 5.2288 -0.620765 2.04229
lowerneck -12.8345 0.769056 -1.84239
upperneck 33.4059 1.30563 0.865406
head 13.3475 0.439471 0.856096
rclavicle -1.14301e-015 -1.41137e-014
rhumerus -26.0238 -15.5638 -81.486
rradius 25.6792
rwrist 30.1343
rhand -18.3369 -26.3409
rfingers 7.12502
rthumb 7.94517 -56.1715
lclavicle -1.14301e-015 -1.41137e-014
lhumerus -19.5663 7.27649 83.0052
lradius 16.4206
lwrist -2.30063
lhand -26.2075 -3.22252
lfingers 7.12502
lthumb 0.345371 26.7569
rfemur -14.6354 -1.26247 18.2181
rtibia 25.0719
rfoot -14.4416 -2.13716
rtoes 10.8233
lfemur -12.1933 8.22849 -20.4685
ltibia 20.9343
lfoot -12.4424 3.14348
ltoes 7.21125
2
root 0.738897 17.521 -14.1068 5.30946 -1.78672 -0.55862
lowerback -1.64042 -0.790295 -1.36528
upperback 4.15731 -1.0597 1.31713
thorax 5.26893 -0.613584 2.06386
lowerneck -12.901 0.757613 -1.83294
upperneck 33.3712 1.30031 0.829474
head 13.3477 0.434066 0.83976
rclavicle -1.2275e-014 1.15295e-014
rhumerus -25.9311 -15.4785 -81.4797
rradius 25.6308
rwrist 30.1725
rhand -18.2673 -26.3271
rfingers 7.12502
rthumb 8.01236 -56.1553
lclavicle -1.2275e-014 1.15295e-014
lhumerus -19.5489 7.38446 83.0534
lradius 16.4422
lwrist -2.22398
lhand -26.0865 -2.99561
lfingers 7.12502
lthumb 0.462183 26.9836
rfemur -14.6668 -1.43237 18.226
rtibia 25.0603
rfoot -14.381 -1.96239
rtoes 10.8359
lfemur -12.1753 8.16462 -20.4738
ltibia 20.8552
lfoot -12.3688 3.25044
ltoes 7.16385
3
root 0.72927 17.5231 -14.1056 5.32697 -1.80231 -0.559215
lowerback -1.64128 -0.766862 -1.36281
upperback 4.17979 -1.02864 1.31858
thorax 5.29153 -0.598492 2.06585
lowerneck -12.9098 0.743522 -1.82554
upperneck 33.3068 1.28544 0.80768
head 13.3223 0.426508 0.82714
rclavicle 2.48481e-015 -2.36554e-014
rhumerus -25.8372 -15.5438 -81.4501
rradius 25.5108
rwrist 30.308
rhand -18.3419 -26.2124
rfingers 7.12502
rthumb 7.94036 -56.0432
lclavicle 2.48481e-015 -2.36554e-014
lhumerus -19.553 7.55782 83.0568
lradius 16.4731
lwrist -2.46311
lhand -25.6869 -2.65717
lfingers 7.12502
lthumb 0.848165 27.3209
rfemur -14.6683 -1.5129 18.2585
rtibia 25.024
rfoot -14.3238 -1.83646
rtoes 11.0004
lfemur -12.1479 8.08567 -20.4459
ltibia 20.7938
lfoot -12.3389 3.3848
ltoes 7.14646
4
root 0.71978 17.526 -14.1043 5.34349 -1.7921 -0.554694
lowerback -1.61194 -0.740251 -1.32911
upperback 4.17084 -0.993805 1.30044
thorax 5.26258 -0.579031 2.03065
lowerneck -12.9002 0.73806 -1.82433
upperneck 33.3173 1.26149 0.855164
head 13.3246 0.422677 0.842139
rclavicle -1.54058e-014 1.41137e-014
rhumerus -25.85 -15.5293 -81.4192
rradius 25.4717
rwrist 30.3635
rhand -18.2868 -26.2464
rfingers 7.12502
rthumb 7.99352 -56.0753
lclavicle -1.54058e-014 1.41137e-014
lhumerus -19.6321 7.20394 83.2052
lradius 16.5644
lwrist -1.8941
lhand -26.0669 -2.99603
lfingers 7.12502
lthumb 0.481115 26.9832
rfemur -14.6629 -1.60245 18.2934
rtibia 24.9899
rfoot -14.2996 -1.75193
rtoes 10.9297
lfemur -12.1313 8.00067 -20.4197
ltibia 20.7357
lfoot -12.29 3.48204
ltoes 7.13809
5
root 0.710083 17.5283 -14.1035 5.36508 -1.77083 -0.550663
lowerback -1.58694 -0.723756 -1.3117
upperback 4.1706 -0.972339 1.29381
thorax 5.24653 -0.567351 2.0156
lowerneck -12.9132 0.725859 -1.81959
upperneck 33.3027 1.23894 0.86747
head 13.3214 0.415433 0.842811
rclavicle 1.3418e-014 -2.98177e-015
rhumerus -25.8256 -15.5093 -81.3912
rradius 25.4206
rwrist 30.4266
rhand -18.269 -26.2372
rfingers 7.12502
rthumb 8.01069 -56.0654
lclavicle 1.3418e-014 -2.98177e-015
lhumerus -19.6794 7.0453 83.3066
lradius 16.6292
lwrist -1.65538
lhand -26.1124 -3.05309
lfingers 7.12502
lthumb 0.437163 26.9262
rfemur -14.6618 -1.70095 18.329
rtibia 24.9495
rfoot -14.2604 -1.66593
rtoes 10.9436
lfemur -12.1308 7.92284 -20.3946
ltibia 20.6956
lfoot -12.2541 3.57046
ltoes 7.11399
6
root 0.700206 17.5302 -14.1029 5.38938 -1.73175 -0.553599
lowerback -1.55144 -0.7123 -1.28747
upperback 4.16314 -0.958043 1.28985
thorax 5.21715 -0.55884 1.99917
lowerneck -12.9277 0.713781 -1.81652
upperneck 33.2966 1.21626 0.882288
head 13.3222 0.40817 0.844846
rclavicle -1.44119e-015 -1.98785e-015
rhumerus -25.8147 -15.4784 -81.3583
rradius 25.3798
rwrist 30.4778
rhand -18.2502 -26.2378
rfingers 7.12502
rthumb 8.02888 -56.0652
lclavicle -1.44119e-015 -1.98785e-015
lhumerus -19.738 6.82956 83.4276
lradius 16.7058
lwrist -1.38948
lhand -26.1736 -3.14823
lfingers 7.12502
lthumb 0.378085 26.8312
rfemur -14.6599 -1.79028 18.3746
rtibia 24.9072
rfoot -14.2275 -1.61014
rtoes 10.9538
lfemur -12.1404 7.84746 -20.361
ltibia 20.6617
lfoot -12.2202 3.64005
ltoes 7.0714
7
root 0.690227 17.5319 -14.1027 5.41744 -1.67571 -0.560296
lowerback -1.50703 -0.706772 -1.26412
upperback 4.14837 -0.951909 1.29197
thorax 5.17555 -0.554405 1.98914
lowerneck -12.9469 0.702483 -1.81368
upperneck 33.2999 1.19686 0.891497
head 13.3281 0.401472 0.84534
rclavicle -9.64106e-015 -5.56597e-015
rhumerus -25.8153 -15.422 -81.3184
rradius 25.3527
rwrist 30.5097
rhand -18.2295 -26.2532
rfingers 7.12502
rthumb 8.04882 -56.08
lclavicle -9.64106e-015 -5.56597e-015
lhumerus -19.8072 6.57653 83.5703
lradius 16.7959
lwrist -1.10424
lhand -26.2352 -3.26003
lfingers 7.12502
lthumb 0.318568 26.7195
rfemur -14.6613 -1.87234 18.4263
rtibia 24.868
rfoot -14.2014 -1.58288
rtoes 10.9588
lfemur -12.1669 7.77484 -20.3233
ltibia 20.6455
lfoot -12.192 3.69343
ltoes 7.00064
8
root 0.680336 17.5332 -14.1025 5.44805 -1.60827 -0.569158
lowerback -1.45788 -0.705779 -1.24326
upperback 4.12872 -0.951989 1.30035
thorax 5.12661 -0.553212 1.9867
lowerneck -12.9639 0.691406 -1.81559
upperneck 33.3046 1.18061 0.896133
head 13.3341 0.394947 0.845332
rclavicle 2.78299e-015 -1.21259e-014
rhumerus -25.819 -15.357 -81.2666
rradius 25.3271
rwrist 30.5399
rhand -18.212 -26.273
rfingers 7.12502
rthumb 8.06577 -56.0991
lclavicle 2.78299e-015 -1.21259e-014
lhumerus -19.8819 6.30429 83.731
lradius 16.9017
lwrist -0.832459
lhand -26.2367 -3.30056
lfingers 7.12502
lthumb 0.317169 26.6789
rfemur -14.6643 -1.94591 18.4806
rtibia 24.8297
rfoot -14.1789 -1.57772
rtoes 10.9695
lfemur -12.2051 7.70533 -20.284
ltibia 20.6425
lfoot -12.1692 3.73585
ltoes 6.90517
9
root 0.670637 17.5344 -14.1025 5.48177 -1.53585 -0.583865
lowerback -1.40831 -0.707363 -1.22037
upperback 4.10649 -0.955851 1.31556
thorax 5.07501 -0.55394 1.98997
lowerneck -12.9803 0.681058 -1.82518
upperneck 33.3123 1.16819 0.898923
head 13.3411 0.388866 0.846543
rclavicle -1.27719e-014 9.14409e-015
rhumerus -25.8186 -15.296 -81.2018
rradius 25.2963
rwrist 30.5789
rhand -18.2036 -26.2873
rfingers 7.12502
rthumb 8.07383 -56.1131
lclavicle -1.27719e-014 9.14409e-015
lhumerus -19.9581 6.02367 83.9084
lradius 17.0162
lwrist -0.561699
lhand -26.219 -3.32935
lfingers 7.12502
lthumb 0.334239 26.6501
rfemur -14.6709 -2.0038 18.5401
rtibia 24.793
rfoot -14.159 -1.59243
rtoes 10.9934
lfemur -12.2533 7.63507 -20.2393
ltibia 20.6495
lfoot -12.1486 3.77479
ltoes 6.81099
